# xmcd
#
# Track frame offsets:
#  150
#  15425
#  30888
#  44498
#  59383
#  77580
#  87285
#  106333
#  123810
#  135853
#
# Disc length: 2067 seconds
#
# Revision: 0
# Processed by: cddbd v1.4PL0 Copyright (c) Steve Scherf et al.
# Submitted via: AltoMP3_Maker 3.0
#
DISCID=6808110a
DTITLE=Mimi Burns - Slipping Away
DYEAR=1900
DGENRE=
TTITLE0=Tattoo
TTITLE1=Million Miles Away
TTITLE2=Your Picture
TTITLE3=Cry
TTITLE4=The Frontlines
TTITLE5=Tombstone
TTITLE6=Far Away
TTITLE7=Over The City
TTITLE8=No Lovin'
TTITLE9=Slip Away
EXTD=
EXTT0=
EXTT1=
EXTT2=
EXTT3=
EXTT4=
EXTT5=
EXTT6=
EXTT7=
EXTT8=
EXTT9=
PLAYORDER=
